<svg width="86" height="32" viewBox="0 0 86 32" fill="none" xmlns="http://www.w3.org/2000/svg">
<circle cx="15" cy="16" r="15" fill="#2E80CE"/>
<circle cx="19" cy="20" r="8" fill="white"/>
<path d="M41.1499 14.288C39.8419 14.288 38.8219 14.012 38.0899 13.46C37.3699 12.908 36.9919 12.146 36.9559 11.174H38.8999C38.9239 11.534 39.1099 11.864 39.4579 12.164C39.8059 12.464 40.3759 12.614 41.1679 12.614C41.8399 12.614 42.3679 12.482 42.7519 12.218C43.1359 11.954 43.3279 11.624 43.3279 11.228C43.3279 10.868 43.1839 10.586 42.8959 10.382C42.6199 10.166 42.1459 10.022 41.4739 9.95L40.5199 9.86C39.5239 9.752 38.7319 9.458 38.1439 8.978C37.5679 8.498 37.2799 7.85 37.2799 7.034C37.2799 6.386 37.4419 5.84 37.7659 5.396C38.0899 4.952 38.5339 4.61 39.0979 4.37C39.6739 4.13 40.3339 4.01 41.0779 4.01C42.2299 4.01 43.1599 4.268 43.8679 4.784C44.5759 5.288 44.9419 6.032 44.9659 7.016H43.0399C43.0159 6.644 42.8419 6.332 42.5179 6.08C42.1939 5.828 41.7139 5.702 41.0779 5.702C40.4779 5.702 40.0159 5.822 39.6919 6.062C39.3799 6.302 39.2239 6.608 39.2239 6.98C39.2239 7.316 39.3439 7.58 39.5839 7.772C39.8239 7.964 40.2139 8.09 40.7539 8.15L41.7079 8.24C42.7999 8.36 43.6639 8.666 44.2999 9.158C44.9479 9.638 45.2719 10.31 45.2719 11.174C45.2719 11.798 45.0979 12.344 44.7499 12.812C44.4019 13.28 43.9159 13.646 43.2919 13.91C42.6799 14.162 41.9659 14.288 41.1499 14.288ZM47.5753 14V0.86H49.6813V8.618H49.2493C49.2493 7.658 49.3693 6.836 49.6093 6.152C49.8613 5.456 50.2393 4.928 50.7433 4.568C51.2593 4.196 51.9073 4.01 52.6873 4.01H52.7773C53.9173 4.01 54.7753 4.394 55.3513 5.162C55.9393 5.93 56.2333 7.034 56.2333 8.474V14H54.1273V8.168C54.1273 7.472 53.9233 6.926 53.5153 6.53C53.1193 6.122 52.6033 5.918 51.9673 5.918C51.2833 5.918 50.7313 6.146 50.3113 6.602C49.8913 7.058 49.6813 7.658 49.6813 8.402V14H47.5753ZM59.6273 14V4.298H61.7333V14H59.6273ZM58.2053 5.918V4.298H61.7333V5.918H58.2053ZM60.3113 2.948C59.8793 2.948 59.5553 2.834 59.3393 2.606C59.1353 2.378 59.0333 2.084 59.0333 1.724C59.0333 1.376 59.1353 1.088 59.3393 0.86C59.5553 0.619999 59.8793 0.499999 60.3113 0.499999C60.7553 0.499999 61.0793 0.619999 61.2833 0.86C61.4993 1.088 61.6073 1.376 61.6073 1.724C61.6073 2.084 61.4993 2.378 61.2833 2.606C61.0793 2.834 60.7553 2.948 60.3113 2.948ZM64.8722 14V4.298H66.5462V8.456H66.3482C66.3482 7.496 66.4742 6.686 66.7262 6.026C66.9902 5.366 67.3862 4.868 67.9142 4.532C68.4422 4.184 69.0962 4.01 69.8762 4.01H69.9662C71.1662 4.01 72.0602 4.388 72.6482 5.144C73.2362 5.9 73.5302 7.004 73.5302 8.456V14H71.4242V8.168C71.4242 7.496 71.2322 6.956 70.8482 6.548C70.4642 6.128 69.9362 5.918 69.2642 5.918C68.5802 5.918 68.0282 6.134 67.6082 6.566C67.1882 6.986 66.9782 7.55 66.9782 8.258V14H64.8722ZM80.6862 14.324C79.8462 14.324 79.1142 14.18 78.4902 13.892C77.8662 13.604 77.3562 13.226 76.9602 12.758C76.5642 12.278 76.2642 11.744 76.0602 11.156C75.8682 10.556 75.7722 9.944 75.7722 9.32V8.978C75.7722 8.342 75.8682 7.73 76.0602 7.142C76.2642 6.542 76.5642 6.008 76.9602 5.54C77.3562 5.06 77.8542 4.682 78.4542 4.406C79.0662 4.118 79.7742 3.974 80.5782 3.974C81.6222 3.974 82.4922 4.202 83.1882 4.658C83.8842 5.114 84.4062 5.708 84.7542 6.44C85.1022 7.16 85.2762 7.94 85.2762 8.78V9.626H76.6722V8.204H83.8542L83.2782 8.924C83.2782 8.276 83.1762 7.718 82.9722 7.25C82.7682 6.77 82.4682 6.404 82.0722 6.152C81.6762 5.888 81.1782 5.756 80.5782 5.756C79.9542 5.756 79.4322 5.9 79.0122 6.188C78.5922 6.476 78.2802 6.872 78.0762 7.376C77.8722 7.88 77.7702 8.474 77.7702 9.158C77.7702 9.806 77.8722 10.388 78.0762 10.904C78.2802 11.408 78.5982 11.81 79.0302 12.11C79.4622 12.398 80.0142 12.542 80.6862 12.542C81.3582 12.542 81.9102 12.398 82.3422 12.11C82.7742 11.81 83.0382 11.462 83.1342 11.066H85.0962C84.9642 11.726 84.6942 12.302 84.2862 12.794C83.8902 13.286 83.3862 13.664 82.7742 13.928C82.1622 14.192 81.4662 14.324 80.6862 14.324ZM57.0821 28.18C56.2661 28.18 55.6381 28.004 55.1981 27.652C54.7581 27.292 54.5341 26.812 54.5261 26.212H55.3661C55.3821 26.516 55.5181 26.792 55.7741 27.04C56.0381 27.288 56.4741 27.412 57.0821 27.412C57.6501 27.412 58.0741 27.296 58.3541 27.064C58.6421 26.824 58.7861 26.536 58.7861 26.2C58.7861 25.888 58.6661 25.648 58.4261 25.48C58.1941 25.304 57.8541 25.192 57.4061 25.144L56.6861 25.072C56.1101 25.008 55.6421 24.832 55.2821 24.544C54.9301 24.248 54.7541 23.844 54.7541 23.332C54.7541 22.956 54.8501 22.628 55.0421 22.348C55.2341 22.068 55.5021 21.852 55.8461 21.7C56.1981 21.54 56.6101 21.46 57.0821 21.46C57.7621 21.46 58.3141 21.62 58.7381 21.94C59.1701 22.26 59.3901 22.716 59.3981 23.308H58.5581C58.5501 23.004 58.4221 22.748 58.1741 22.54C57.9261 22.332 57.5621 22.228 57.0821 22.228C56.5861 22.228 56.2141 22.336 55.9661 22.552C55.7261 22.768 55.6061 23.032 55.6061 23.344C55.6061 23.608 55.6981 23.828 55.8821 24.004C56.0661 24.172 56.3541 24.276 56.7461 24.316L57.4661 24.388C58.1061 24.46 58.6261 24.644 59.0261 24.94C59.4341 25.236 59.6381 25.66 59.6381 26.212C59.6381 26.588 59.5301 26.928 59.3141 27.232C59.1061 27.528 58.8101 27.76 58.4261 27.928C58.0421 28.096 57.5941 28.18 57.0821 28.18ZM61.4296 28V21.64H62.1496V24.316H62.0056C62.0056 23.732 62.0856 23.228 62.2456 22.804C62.4136 22.38 62.6616 22.052 62.9896 21.82C63.3176 21.58 63.7336 21.46 64.2376 21.46H64.2736C64.7776 21.46 65.1936 21.576 65.5216 21.808C65.8496 22.04 66.0936 22.368 66.2536 22.792C66.4136 23.216 66.4936 23.724 66.4936 24.316H66.2056C66.2056 23.732 66.2856 23.228 66.4456 22.804C66.6136 22.38 66.8616 22.052 67.1896 21.82C67.5256 21.58 67.9456 21.46 68.4496 21.46H68.4856C68.9896 21.46 69.4056 21.576 69.7336 21.808C70.0696 22.04 70.3176 22.368 70.4776 22.792C70.6456 23.216 70.7296 23.724 70.7296 24.316V28H69.8296V24.112C69.8296 23.552 69.6936 23.108 69.4216 22.78C69.1496 22.452 68.7576 22.288 68.2456 22.288C67.7176 22.288 67.2976 22.46 66.9856 22.804C66.6816 23.14 66.5296 23.596 66.5296 24.172V28H65.6296V24.112C65.6296 23.552 65.4936 23.108 65.2216 22.78C64.9496 22.452 64.5576 22.288 64.0456 22.288C63.5176 22.288 63.0976 22.46 62.7856 22.804C62.4816 23.14 62.3296 23.596 62.3296 24.172V28H61.4296ZM73.3086 28V21.652H74.1966V28H73.3086ZM72.2886 22.372V21.652H74.1966V22.372H72.2886ZM73.5006 20.476C73.2846 20.476 73.1206 20.42 73.0086 20.308C72.9046 20.188 72.8526 20.04 72.8526 19.864C72.8526 19.688 72.9046 19.544 73.0086 19.432C73.1206 19.312 73.2846 19.252 73.5006 19.252C73.7166 19.252 73.8766 19.312 73.9806 19.432C74.0846 19.544 74.1366 19.688 74.1366 19.864C74.1366 20.04 74.0846 20.188 73.9806 20.308C73.8766 20.42 73.7166 20.476 73.5006 20.476ZM76.6185 28V19.24H77.5185V28H76.6185ZM75.6945 19.972V19.24H77.5185V19.972H75.6945ZM82.5035 28.204C81.9595 28.204 81.4875 28.112 81.0875 27.928C80.6875 27.736 80.3595 27.484 80.1035 27.172C79.8475 26.852 79.6555 26.496 79.5275 26.104C79.4075 25.712 79.3475 25.308 79.3475 24.892V24.724C79.3475 24.316 79.4075 23.916 79.5275 23.524C79.6555 23.132 79.8475 22.78 80.1035 22.468C80.3595 22.156 80.6795 21.908 81.0635 21.724C81.4555 21.532 81.9115 21.436 82.4315 21.436C83.0955 21.436 83.6475 21.584 84.0875 21.88C84.5355 22.176 84.8715 22.556 85.0955 23.02C85.3195 23.476 85.4315 23.968 85.4315 24.496V24.964H79.7555V24.268H84.8075L84.5795 24.616C84.5795 24.144 84.4955 23.732 84.3275 23.38C84.1675 23.02 83.9275 22.74 83.6075 22.54C83.2955 22.332 82.9035 22.228 82.4315 22.228C81.9355 22.228 81.5235 22.344 81.1955 22.576C80.8675 22.808 80.6195 23.116 80.4515 23.5C80.2915 23.884 80.2115 24.32 80.2115 24.808C80.2115 25.288 80.2915 25.728 80.4515 26.128C80.6195 26.52 80.8715 26.832 81.2075 27.064C81.5515 27.296 81.9835 27.412 82.5035 27.412C83.0555 27.412 83.5035 27.288 83.8475 27.04C84.1915 26.784 84.4035 26.484 84.4835 26.14H85.3235C85.2435 26.564 85.0755 26.932 84.8195 27.244C84.5635 27.548 84.2395 27.784 83.8475 27.952C83.4555 28.12 83.0075 28.204 82.5035 28.204Z" fill="white"/>
</svg>
