<svg width="72" height="72" viewBox="0 0 72 72" fill="none" xmlns="http://www.w3.org/2000/svg">
<path d="M50.625 64.125C53.4068 64.1266 56.12 63.2615 58.3875 61.65L66.9375 70.2C67.1309 70.4579 67.3775 70.6712 67.6605 70.8255C67.9436 70.9798 68.2564 71.0715 68.578 71.0944C68.8995 71.1172 69.2223 71.0707 69.5243 70.958C69.8263 70.8453 70.1005 70.669 70.3285 70.441C70.5564 70.2131 70.7327 69.9388 70.8455 69.6368C70.9582 69.3348 71.0047 69.0121 70.9818 68.6905C70.959 68.369 70.8673 68.0561 70.713 67.7731C70.5587 67.49 70.3454 67.2435 70.0875 67.05L61.5375 58.5C63.3058 56.0378 64.1939 53.052 64.0589 50.0236C63.9238 46.9952 62.7734 44.1004 60.7929 41.8053C58.8124 39.5103 56.1171 37.9486 53.1411 37.3718C50.165 36.795 47.0814 37.2366 44.3869 38.6255C41.6924 40.0144 39.5437 42.2698 38.287 45.0285C37.0303 47.7872 36.7386 50.8885 37.459 53.8331C38.1793 56.7777 39.8698 59.3942 42.2581 61.2611C44.6464 63.1281 47.5936 64.1369 50.625 64.125ZM50.625 41.625C52.405 41.625 54.1451 42.1529 55.6251 43.1418C57.1052 44.1307 58.2587 45.5364 58.9399 47.1809C59.6211 48.8254 59.7993 50.635 59.4521 52.3808C59.1048 54.1267 58.2476 55.7303 56.989 56.989C55.7303 58.2477 54.1266 59.1048 52.3808 59.4521C50.635 59.7994 48.8254 59.6211 47.1809 58.94C45.5363 58.2588 44.1307 57.1052 43.1418 55.6252C42.1528 54.1451 41.625 52.4051 41.625 50.625C41.625 48.2381 42.5732 45.9489 44.261 44.2611C45.9489 42.5732 48.2381 41.625 50.625 41.625Z" fill="#10375C"/>
<path d="M32.625 50.625C32.6059 47.1092 33.6233 43.6658 35.55 40.725C35.3719 40.1039 35.2959 39.458 35.325 38.8125V37.125C37.6217 35.0066 39.2617 32.2733 40.05 29.25C42.8625 29.25 43.425 23.5125 43.425 22.725C43.425 21.9375 43.5375 18.45 40.725 18.45C46.8 3.93747 30.825 -3.71252 18.9 4.61248C13.95 4.61248 13.6125 11.25 15.4125 18.45C12.6 18.45 12.7125 21.825 12.7125 22.725C12.7125 23.625 13.3875 29.25 16.0875 29.25C16.8817 32.2708 18.5208 35.0026 20.8125 37.125V38.925C20.8125 40.725 20.8125 43.425 11.7 45.225C2.5875 47.025 1.125 55.125 1.125 55.125H33.1875C32.8098 53.6549 32.6208 52.1428 32.625 50.625Z" fill="#10375C"/>
</svg>
