<svg width="72" height="72" viewBox="0 0 72 72" fill="none" xmlns="http://www.w3.org/2000/svg">
<path d="M68.7624 63.9901L46.7326 41.9446L46.691 41.9862C50.4943 36.99 52.2574 30.7356 51.6236 24.4886C50.9897 18.2416 48.0063 12.4687 43.277 8.3383C38.5477 4.20788 32.4259 2.02842 26.1504 2.24102C19.875 2.45362 13.9147 5.0424 9.47576 9.48342C5.03686 13.9244 2.45094 19.886 2.24135 26.1615C2.03176 32.4371 4.21415 38.5579 8.34684 43.2852C12.4795 48.0125 18.2538 50.9932 24.5011 51.624C30.7484 52.2549 37.002 50.4887 41.9964 46.6831L41.9615 46.7179L63.9879 68.7601C64.6207 69.3932 65.4791 69.749 66.3743 69.7492C67.2695 69.7494 68.1281 69.394 68.7612 68.7612C69.3944 68.1283 69.7502 67.2699 69.7504 66.3747C69.7506 65.4795 69.3952 64.6209 68.7624 63.9878V63.9901ZM27.0001 45.0001C23.44 45.0001 19.9599 43.9444 16.9998 41.9665C14.0398 39.9886 11.7327 37.1774 10.3703 33.8884C9.0079 30.5993 8.65144 26.9801 9.34597 23.4884C10.0405 19.9968 11.7548 16.7895 14.2722 14.2721C16.7895 11.7548 19.9968 10.0405 23.4885 9.34593C26.9801 8.65139 30.5993 9.00785 33.8884 10.3702C37.1775 11.7326 39.9887 14.0397 41.9666 16.9998C43.9444 19.9599 45.0001 23.44 45.0001 27.0001C44.9995 31.7738 43.1029 36.3518 39.7274 39.7273C36.3518 43.1028 31.7738 44.9995 27.0001 45.0001Z" fill="#10375C"/>
</svg>
