<svg width="72" height="72" viewBox="0 0 72 72" fill="none" xmlns="http://www.w3.org/2000/svg">
<g clip-path="url(#clip0_2_158)">
<path d="M65.25 16.875H6.75C4.95979 16.875 3.2429 17.5862 1.97703 18.852C0.711159 20.1179 0 21.8348 0 23.625L0 59.625C0 61.4152 0.711159 63.1321 1.97703 64.398C3.2429 65.6638 4.95979 66.375 6.75 66.375H65.25C67.0402 66.375 68.7571 65.6638 70.023 64.398C71.2888 63.1321 72 61.4152 72 59.625V23.625C72 21.8348 71.2888 20.1179 70.023 18.852C68.7571 17.5862 67.0402 16.875 65.25 16.875ZM48.375 45H39.375V54H32.625V45H23.625V38.25H32.625V29.25H39.375V38.25H48.375V45Z" fill="#10375C"/>
<path d="M27 14.625V11.25C27 10.6533 27.2371 10.081 27.659 9.65901C28.081 9.23705 28.6533 9 29.25 9H42.75C43.3467 9 43.919 9.23705 44.341 9.65901C44.7629 10.081 45 10.6533 45 11.25V14.625H49.5V11.25C49.4979 9.46043 48.7861 7.74475 47.5207 6.47933C46.2552 5.21391 44.5396 4.50208 42.75 4.5H29.25C27.4604 4.50208 25.7447 5.21391 24.4793 6.47933C23.2139 7.74475 22.5021 9.46043 22.5 11.25V14.625H27Z" fill="#10375C"/>
</g>
<defs>
<clipPath id="clip0_2_158">
<rect width="72" height="72" fill="white"/>
</clipPath>
</defs>
</svg>
